<svg width="42" height="42" viewBox="0 0 24 24" xmlns="http://www.w3.org/2000/svg">
	<path transform="scale(.57143)" d="m0 0v42h42v-42h-42zm21 3.5c9.66 0 17.5 7.84 17.5 17.5s-7.84 17.5-17.5 17.5-17.5-7.84-17.5-17.5 7.84-17.5 17.5-17.5zm0 5.25c-2.905 0-5.25 2.345-5.25 5.25s2.345 5.25 5.25 5.25 5.25-2.345 5.25-5.25-2.345-5.25-5.25-5.25zm0 13.824c-3.5 0-10.448 1.9081-10.5 5.3906 2.2575 3.395 6.125 5.6348 10.5 5.6348s8.2425-2.2398 10.5-5.6348c-0.0525-3.4825-7.0175-5.3906-10.5-5.3906z" fill="#69b7cf" stroke-width="1.75"/>
</svg>
