<svg width="39" height="39" version="1.1" viewBox="0 0 39 39" xmlns="http://www.w3.org/2000/svg">
	<path d="m0 0h24v24h-24z" fill="none"/>
	<path d="m29.004 18.437c-0.48903-4.4331-4.0079-7.952-8.441-8.441v-2.19h-2.1262v2.19c-4.4331 0.48903-7.952 4.0079-8.441 8.441h-2.19v2.1262h2.19c0.48903 4.4331 4.0079 7.952 8.441 8.441v2.19h2.1262v-2.19c4.4331-0.48903 7.952-4.0079 8.441-8.441h2.19v-2.1262zm-9.5041 8.5048c-4.1142 0-7.4417-3.3275-7.4417-7.4417s3.3275-7.4417 7.4417-7.4417 7.4417 3.3275 7.4417 7.4417-3.3275 7.4417-7.4417 7.4417z" fill="#69b7cf" stroke-width="1.0631"/>
	<path id="location_icon_dot" d="m19.5 15.248c-2.3495 0-4.2524 1.903-4.2524 4.2524s1.903 4.2524 4.2524 4.2524 4.2524-1.903 4.2524-4.2524-1.903-4.2524-4.2524-4.2524z" fill="#69b7cf" stroke-width="1.0631"/>
</svg>
