<svg width="39" height="39" version="1.1" viewBox="0 0 39 39" xmlns="http://www.w3.org/2000/svg">
	<path d="m0 0h24v24h-24z" fill="none"/>
	<path d="m28.757 18.465c-0.47633-4.318-3.9038-7.7455-8.2218-8.2218v-2.1331h-2.071v2.1331c-4.318 0.47633-7.7455 3.9038-8.2218 8.2218h-2.1331v2.071h2.1331c0.47633 4.318 3.9038 7.7455 8.2218 8.2218v2.1331h2.071v-2.1331c4.318-0.47633 7.7455-3.9038 8.2218-8.2218h2.1331v-2.071zm-9.2573 8.284c-4.0074 0-7.2485-3.2411-7.2485-7.2485s3.2411-7.2485 7.2485-7.2485 7.2485 3.2411 7.2485 7.2485-3.2411 7.2485-7.2485 7.2485z" fill="#69b7cf" stroke-width="1.0355"/>
	<path id="location_icon_dot" d="m19.5 15.358c-2.2884 0-4.142 1.8535-4.142 4.142s1.8535 4.142 4.142 4.142 4.142-1.8535 4.142-4.142-1.8535-4.142-4.142-4.142z" fill="#69b7cf" stroke-width="1.0355"/>
</svg>
