<svg xmlns='http://www.w3.org/2000/svg'
	 width='24' height='24'
	 viewBox="0 0 24 24">
	<path fill='none' d="M0 0h24v24H0z" />
	<path fill='#69b7cf' d="m20.94 11c-.46-4.17-3.77-7.48-7.94-7.94v-2.06h-2v2.06c-4.17.46-7.48 3.77-7.94 7.94h-2.06v2h2.06c.46 4.17 3.77 7.48 7.94 7.94v2.06h2v-2.06c4.17-.46 7.48-3.77 7.94-7.94h2.06v-2zm-8.94 8c-3.87 0-7-3.13-7-7s3.13-7 7-7 7 3.13 7 7-3.13 7-7 7z" />
	<path id='location_icon_dot' d="m12 8c-2.21 0-4 1.79-4 4s1.79 4 4 4 4-1.79 4-4-1.79-4-4-4z" style="fill:#69b7cf" />
</svg>
