<svg version="1.1"
	 xmlns:svg="http://www.w3.org/2000/svg" xmlns="http://www.w3.org/2000/svg" xmlns:xlink="http://www.w3.org/1999/xlink" x="0px" y="0px" viewBox="-55 -18 306 100">
<g id="flowRoot2982" transform="matrix(0.2476154,0,0,0.2476154,3.0703645,-26.736306)">
	<path fill="#69B7CF" d="M549.9,282.2h-19.4c-0.3-4.5-1.5-8.6-3.5-12.2
		c-2.1-3.7-4.8-6.8-8.2-9.4c-3.4-2.6-7.4-4.6-12-5.9c-4.6-1.4-9.5-2.1-14.8-2.1c-7.2,0-13.7,1.3-19.5,3.8
		c-5.8,2.5-10.8,6.2-14.9,11.1c-4.1,4.9-7.3,10.9-9.5,18.1c-2.2,7.2-3.3,15.5-3.3,24.8c0,9.3,1.1,17.5,3.3,24.7
		c2.2,7.2,5.3,13.2,9.4,18.1c4,4.9,8.9,8.7,14.7,11.3c5.8,2.6,12.2,3.9,19.3,3.9c11.3,0,20.3-2.7,27.3-8.2
		c6.9-5.4,10.8-13.3,11.7-23.6h19.4c-0.7,7.6-2.5,14.4-5.7,20.3c-3.1,5.9-7.2,10.9-12.3,15c-5.1,4.1-11,7.2-17.9,9.4
		c-6.8,2.2-14.2,3.3-22.2,3.3c-10.2,0-19.5-1.7-27.7-5.2c-8.2-3.5-15.2-8.4-21-14.9c-5.8-6.4-10.2-14.2-13.3-23.4
		c-3.1-9.2-4.7-19.4-4.7-30.7c0-11.3,1.6-21.5,4.7-30.7c3.2-9.2,7.6-17,13.4-23.4c5.8-6.4,12.8-11.4,21-14.9
		c8.2-3.5,17.4-5.3,27.5-5.3c7.6,0,14.8,1.1,21.6,3.3c6.8,2.2,12.7,5.3,17.9,9.4c5.2,4.1,9.4,8.9,12.7,14.6
		C547.2,269,549.2,275.3,549.9,282.2z"/>
	<path fill="#69B7CF" d="M638.4,236.3c9.9,0,19,1.8,27.4,5.3
		c8.4,3.6,15.6,8.6,21.7,15c6.1,6.5,10.8,14.2,14.2,23.4c3.4,9.1,5.1,19.2,5.1,30.3c0,11-1.7,21-5,30.1c-3.3,9.1-8.1,16.9-14.2,23.5
		c-6.1,6.6-13.3,11.7-21.7,15.2c-8.3,3.6-17.5,5.4-27.5,5.4c-10.1,0-19.3-1.8-27.7-5.3c-8.4-3.6-15.6-8.6-21.7-15.1
		c-6.1-6.5-10.8-14.3-14.2-23.5c-3.4-9.1-5.1-19.2-5.1-30.3c0-11.2,1.7-21.3,5.1-30.5c3.4-9.1,8.2-16.9,14.3-23.4
		c6.1-6.5,13.4-11.4,21.7-14.9C619.2,238.1,628.4,236.3,638.4,236.3z M638.2,368.3c7.1,0,13.7-1.3,19.7-4c6-2.6,11.2-6.5,15.6-11.4
		c4.4-5,7.7-11,10.2-18.2c2.4-7.2,3.6-15.3,3.6-24.3c0-9.2-1.2-17.4-3.7-24.5c-2.5-7.1-5.9-13.1-10.2-18.1
		c-4.3-4.9-9.5-8.7-15.4-11.2c-6-2.5-12.4-3.8-19.4-3.8c-7,0-13.6,1.3-19.7,3.9c-6.1,2.6-11.3,6.4-15.6,11.3
		c-4.3,4.9-7.7,11-10.2,18.1c-2.5,7.1-3.7,15.2-3.7,24.3c0,9.1,1.2,17.2,3.6,24.3c2.4,7.2,5.8,13.2,10.1,18.2
		c4.4,5,9.5,8.8,15.5,11.4C624.5,367,631,368.3,638.2,368.3z"/>
	<path fill="#69B7CF" d="M850.7,309.6c0,48.3-24.4,72.4-73.1,72.4h-45.4V238.8h45.4
		C826.4,238.8,850.7,262.4,850.7,309.6z M831.1,309.6c0-8.4-0.8-15.9-2.5-22.5c-1.7-6.6-4.5-12.2-8.5-16.9c-4-4.6-9.5-8.2-16.5-10.7
		c-7-2.5-15.7-3.7-26.1-3.7h-26.2V365h26.2c10.5,0,19.1-1.3,26-3.8c6.9-2.5,12.4-6.2,16.5-10.9c4.1-4.7,7-10.5,8.7-17.4
		C830.3,326.1,831.1,318.3,831.1,309.6z"/>
	<path fill="#69B7CF" d="M983.8,382H876.8 V238.8h106.9l0,17h-88v43.6h57.6l21.7,17.1h-79.3V365h88L983.8,382z"/>
</g>
<g transform="matrix(1.0131229,0,0,1.0131229,1.9999995,2.6140126)">
	<g>
		<path fill="#D9D9D9" d="M-20.8,73.9L-52-15.9l8.5,0 l31.1,89.8H-20.8z"/>
	</g>
	<g transform="matrix(0.99981532,0,0,0.99981532,-0.57726526,0.01070876)">
		<g>
			<path id="path3786" fill="#69B7CF" d="M-3.6,66.1L-28.8-6.7h13.5 L9.8,66.1H-3.6z"/>
		</g>
		<g>
			<path fill="#69B7CF" d="M26.3,12.6L11.1,59.5 L5.4,40.9L20.6-6.7h12.6l17.1,51l18.1-51h13.4L56.5,66.1H43.9L26.3,12.6z"/>
		</g>
	</g>
	<g>
		<path fill="#D9D9D9" d="M94.4-15.9h8.5L72.2,73.9 h-8.5L94.4-15.9z"/>
	</g>
</g>
<g>
	<text text-anchor="middle" transform="matrix(1 0 0 1 78 10)" fill="#999999">Location</text>
</g>
</svg>
