<svg xmlns="http://www.w3.org/2000/svg"
	 viewBox="0 0 152 8">
	<g transform="translate(78,8)" fill="#69b7cf" aria-label="LOCATION">
		<path d="m-26.865 0h-5.8496v-9.4434h1.25v8.3203h4.5996z"/>
		<path d="m-21.279-9.6094q0.97656 0 1.8066 0.35156t1.4258 0.99609q0.60547 0.63477 0.9375 1.543 0.3418 0.89844 0.3418 1.9922 0 1.084-0.33203 1.9824-0.33203 0.89844-0.9375 1.5527-0.5957 0.64453-1.4258 1.0059-0.82031 0.35156-1.8164 0.35156t-1.8262-0.35156q-0.83008-0.35156-1.4355-0.99609-0.5957-0.64453-0.92773-1.543-0.33203-0.9082-0.33203-2.002 0-1.1035 0.33203-2.002 0.3418-0.9082 0.94727-1.543 0.60547-0.64453 1.4258-0.98633 0.83008-0.35156 1.8164-0.35156zm-0.0098 8.7012q0.70312 0 1.2988-0.25391 0.5957-0.26367 1.0254-0.75195 0.42969-0.49805 0.66406-1.2012 0.24414-0.71289 0.24414-1.6113 0-0.9082-0.24414-1.6113-0.24414-0.70312-0.67383-1.1914-0.41992-0.48828-1.0156-0.74219-0.58594-0.25391-1.2695-0.25391-0.70312 0-1.3086 0.26367-0.5957 0.25391-1.0254 0.74219-0.42969 0.48828-0.67383 1.1914t-0.24414 1.6016 0.23438 1.6113q0.24414 0.70312 0.67383 1.2012 0.42969 0.48828 1.0156 0.75195 0.5957 0.25391 1.2988 0.25391z"/>
		<path d="m-7.3047-6.582h-1.2793q-0.029297-0.44922-0.23438-0.81055-0.20508-0.36133-0.54688-0.61523-0.33203-0.25391-0.79102-0.39062-0.44922-0.13672-0.9668-0.13672-0.71289 0-1.2891 0.25391-0.57617 0.24414-0.98633 0.73242-0.40039 0.47852-0.625 1.1914-0.21484 0.71289-0.21484 1.6309t0.21484 1.6309q0.22461 0.70312 0.625 1.1914 0.40039 0.48828 0.9668 0.74219 0.57617 0.25391 1.2793 0.25391 1.1133 0 1.7969-0.53711 0.68359-0.53711 0.77148-1.5527h1.2793q-0.068359 0.75195-0.38086 1.3379-0.30273 0.58594-0.81055 0.99609-0.49805 0.40039-1.1719 0.61523-0.67383 0.21484-1.4648 0.21484-1.0156 0-1.8262-0.3418-0.81055-0.35156-1.3867-0.98633-0.56641-0.63477-0.87891-1.543-0.30274-0.9082-0.30274-2.0215t0.3125-2.0215q0.3125-0.9082 0.87891-1.543 0.57617-0.63477 1.3867-0.97656 0.81055-0.35156 1.8164-0.35156 0.75195 0 1.416 0.21484 0.67383 0.21484 1.1816 0.61523 0.51758 0.40039 0.83984 0.9668 0.32227 0.55664 0.39062 1.2402z"/>
		<path d="m-0.67383-3.8672-1.6699-4.375-1.582 4.375zm2.8711 3.8672h-1.416l-1.0938-2.8711h-3.9551l-1.0449 2.8711h-1.3184l3.623-9.4434h1.3574z"/>
		<path d="m9.9805-8.3203h-3.125v8.3203h-1.25v-8.3203h-3.1055v-1.123h7.4805z"/>
		<path d="m12.764 0h-1.25v-9.4434h1.25z"/>
		<path d="m19.111-9.6094q0.97656 0 1.8066 0.35156t1.4258 0.99609q0.60547 0.63477 0.9375 1.543 0.3418 0.89844 0.3418 1.9922 0 1.084-0.33203 1.9824-0.33203 0.89844-0.9375 1.5527-0.5957 0.64453-1.4258 1.0059-0.82031 0.35156-1.8164 0.35156t-1.8262-0.35156q-0.83008-0.35156-1.4355-0.99609-0.5957-0.64453-0.92773-1.543-0.33203-0.9082-0.33203-2.002 0-1.1035 0.33203-2.002 0.3418-0.9082 0.94727-1.543 0.60547-0.64453 1.4258-0.98633 0.83008-0.35156 1.8164-0.35156zm-0.0098 8.7012q0.70312 0 1.2988-0.25391 0.5957-0.26367 1.0254-0.75195 0.42969-0.49805 0.66406-1.2012 0.24414-0.71289 0.24414-1.6113 0-0.9082-0.24414-1.6113-0.24414-0.70312-0.67383-1.1914-0.41992-0.48828-1.0156-0.74219-0.58594-0.25391-1.2695-0.25391-0.70312 0-1.3086 0.26367-0.5957 0.25391-1.0254 0.74219-0.42969 0.48828-0.67383 1.1914-0.24414 0.70312-0.24414 1.6016t0.23438 1.6113q0.24414 0.70312 0.67383 1.2012 0.42969 0.48828 1.0156 0.75195 0.5957 0.25391 1.2988 0.25391z"/>
		<path d="m32.715 0h-1.2793l-4.9609-7.4512v7.4512h-1.1816v-9.4434h1.2891l4.9414 7.4609v-7.4609h1.1914z"/>
	</g>
</svg>
