<svg xmlns='http://www.w3.org/2000/svg'
	 width='152px' height='14px'
	 viewBox="0 0 152 10">
	<g transform="translate(4.4482)" fill="#69b7cf" stroke-width=".47133" aria-label="CODE">
		<path d="m61.31 3.1343h-1.2864q-0.02946-0.45169-0.23567-0.81501-0.20621-0.36332-0.54989-0.61862-0.33386-0.2553-0.79537-0.39278-0.45169-0.13747-0.97212-0.13747-0.71682 0-1.2962 0.2553-0.57935 0.24549-0.99176 0.73646-0.4026 0.48115-0.62844 1.198-0.21603 0.71682-0.21603 1.6398t0.21603 1.6398q0.22585 0.707 0.62844 1.198t0.97212 0.74628q0.57935 0.2553 1.2864 0.2553 1.1194 0 1.8068-0.54007t0.77574-1.5613h1.2864q-0.06874 0.7561-0.38296 1.3453-0.3044 0.58917-0.81501 1.0016-0.50079 0.4026-1.1783 0.61862-0.67754 0.21603-1.4729 0.21603-1.0212 0-1.8362-0.34368-0.81501-0.3535-1.3944-0.99176-0.56953-0.63826-0.88375-1.5515-0.3044-0.91321-0.3044-2.0326t0.31422-2.0326 0.88375-1.5515q0.57935-0.63826 1.3944-0.98194 0.81501-0.3535 1.8264-0.3535 0.7561 0 1.4238 0.21603 0.67754 0.21603 1.1882 0.61862 0.52043 0.4026 0.84447 0.97212 0.32404 0.55971 0.39278 1.2471z"/>
		<path d="m67.172 0.090283q0.98194 0 1.8166 0.3535 0.83465 0.3535 1.4336 1.0016 0.6088 0.63826 0.94266 1.5515 0.34368 0.90339 0.34368 2.0032 0 1.09-0.33386 1.9934-0.33386 0.90339-0.94267 1.5613-0.59898 0.64808-1.4336 1.0114-0.82483 0.3535-1.8264 0.3535t-1.8362-0.3535q-0.83465-0.3535-1.4435-1.0016-0.59898-0.64808-0.93285-1.5515-0.33386-0.91321-0.33386-2.013 0-1.1096 0.33386-2.013 0.34368-0.91321 0.95248-1.5515 0.6088-0.64808 1.4336-0.99176 0.83465-0.3535 1.8264-0.3535zm-0.0098 8.7491q0.707 0 1.306-0.2553 0.59899-0.26512 1.031-0.7561 0.43206-0.50079 0.66772-1.2078 0.24549-0.71682 0.24549-1.6202 0-0.91321-0.24549-1.6202-0.24548-0.707-0.67754-1.198-0.42224-0.49097-1.0212-0.74628-0.58917-0.2553-1.2765-0.2553-0.707 0-1.3158 0.26512-0.59899 0.2553-1.031 0.74628t-0.67754 1.198q-0.24549 0.707-0.24549 1.6104 0 0.90339 0.23567 1.6202 0.24549 0.707 0.67754 1.2078 0.43206 0.49097 1.0212 0.7561 0.59898 0.2553 1.306 0.2553z"/>
		<path d="m81.244 4.9509q0 4.8017-4.841 4.8017h-3.0146v-9.4954h3.0146q4.841 0 4.841 4.6937zm-1.2962 0q0-0.83465-0.16693-1.4926-0.16693-0.6579-0.56953-1.1194-0.4026-0.46151-1.0998-0.707-0.68736-0.24549-1.7282-0.24549h-1.738v7.2369h1.738q1.0409 0 1.7282-0.24549 0.68736-0.2553 1.09-0.72664 0.41242-0.47133 0.57935-1.1489 0.16693-0.68736 0.16693-1.5515z"/>
		<path d="m90.061 9.7526h-7.0896v-9.4954h6.8736v1.1292h-5.6167v2.8869h5.2534v1.1292h-5.2534v3.2208h5.8327z"/>
	</g>
</svg>
