<svg xmlns='http://www.w3.org/2000/svg'
	 width='120' height='34' viewBox="40 0 65.4297 9.78525">
	<g transform="translate(72.7146,9.61909)" style="fill:#69b7cf" aria-label="LOCATION">
		<path d="m-26.865 0h-5.8496v-9.4434h1.25v8.3203h4.5996z"/>
		<path d="m-21.279-9.6094q.97656 0 1.8066.35156t1.4258.99609q.60547.63477.9375 1.543.3418.89844.3418 1.9922 0 1.084-.33203 1.9824-.33203.89844-.9375 1.5527-.5957.64453-1.4258 1.0059-.82031.35156-1.8164.35156t-1.8262-.35156q-.83008-.35156-1.4355-.99609-.5957-.64453-.92773-1.543-.33203-.9082-.33203-2.002 0-1.1035.33203-2.002.3418-.9082.94727-1.543.60547-.64453 1.4258-.98633.83008-.35156 1.8164-.35156zm-.0098 8.7012q.70312 0 1.2988-.25391.5957-.26367 1.0254-.75195.42969-.49805.66406-1.2012.24414-.71289.24414-1.6113 0-.9082-.24414-1.6113-.24414-.70312-.67383-1.1914-.41992-.48828-1.0156-.74219-.58594-.25391-1.2695-.25391-.70312 0-1.3086.26367-.5957.25391-1.0254.74219-.42969.48828-.67383 1.1914t-.24414 1.6016.23438 1.6113q.24414.70312.67383 1.2012.42969.48828 1.0156.75195.5957.25391 1.2988.25391z"/>
		<path d="m-7.3047-6.582h-1.2793q-.029297-.44922-.23438-.81055-.20508-.36133-.54688-.61523-.33203-.25391-.79102-.39062-.44922-.13672-.9668-.13672-.71289 0-1.2891.25391-.57617.24414-.98633.73242-.40039.47852-.625 1.1914-.21484.71289-.21484 1.6309t.21484 1.6309q.22461.70312.625 1.1914t.9668.74219q.57617.25391 1.2793.25391 1.1133 0 1.7969-.53711.68359-.53711.77148-1.5527h1.2793q-.068359.75195-.38086 1.3379-.30273.58594-.81055.99609-.49805.40039-1.1719.61523-.67383.21484-1.4648.21484-1.0156 0-1.8262-.3418-.81055-.35156-1.3867-.98633-.56641-.63477-.87891-1.543-.30274-.9082-.30274-2.0215t.3125-2.0215.87891-1.543q.57617-.63477 1.3867-.97656.81055-.35156 1.8164-.35156.75195 0 1.416.21484.67383.21484 1.1816.61523.51758.40039.83984.9668.32227.55664.39062 1.2402z"/>
		<path d="m-.67383-3.8672-1.6699-4.375-1.582 4.375zm2.8711 3.8672h-1.416l-1.0938-2.8711h-3.9551l-1.0449 2.8711h-1.3184l3.623-9.4434h1.3574z"/>
		<path d="m9.9805-8.3203h-3.125v8.3203h-1.25v-8.3203h-3.1055v-1.123h7.4805z"/>
		<path d="m12.764 0h-1.25v-9.4434h1.25z"/>
		<path d="m19.111-9.6094q.97656 0 1.8066.35156t1.4258.99609q.60547.63477.9375 1.543.3418.89844.3418 1.9922 0 1.084-.33203 1.9824-.33203.89844-.9375 1.5527-.5957.64453-1.4258 1.0059-.82031.35156-1.8164.35156t-1.8262-.35156q-.83008-.35156-1.4355-.99609-.5957-.64453-.92773-1.543-.33203-.9082-.33203-2.002 0-1.1035.33203-2.002.3418-.9082.94727-1.543.60547-.64453 1.4258-.98633.83008-.35156 1.8164-.35156zm-.0098 8.7012q.70312 0 1.2988-.25391.5957-.26367 1.0254-.75195.42969-.49805.66406-1.2012.24414-.71289.24414-1.6113 0-.9082-.24414-1.6113-.24414-.70312-.67383-1.1914-.41992-.48828-1.0156-.74219-.58594-.25391-1.2695-.25391-.70312 0-1.3086.26367-.5957.25391-1.0254.74219-.42969.48828-.67383 1.1914t-.24414 1.6016.23438 1.6113q.24414.70312.67383 1.2012.42969.48828 1.0156.75195.5957.25391 1.2988.25391z"/>
		<path d="m32.715 0h-1.2793l-4.9609-7.4512v7.4512h-1.1816v-9.4434h1.2891l4.9414 7.4609v-7.4609h1.1914z"/>
	</g>
</svg>
